<mxfile host="app.diagrams.net" modified="2020-12-06T17:14:26.032Z" agent="5.0 (Windows)" etag="0JKNbmGbwQtRPJZldhPc" version="13.10.9" type="github">
  <diagram name="Page-1" id="8378b5f6-a2b2-b727-a746-972ab9d02e00">
    <mxGraphModel dx="1422" dy="781" grid="1" gridSize="10" guides="1" tooltips="1" connect="0" arrows="1" fold="1" page="1" pageScale="1.5" pageWidth="1169" pageHeight="827" background="#ffffff" math="0" shadow="0">
      <root>
        <mxCell id="0" />
        <mxCell id="1" parent="0" />
        <mxCell id="ye3r3yw3m_dPBivQgIVM-270" value="" style="strokeColor=#DEEDFF" vertex="1" parent="1">
          <mxGeometry x="806.500000000002" y="380.00000000000387" width="20" height="520" as="geometry" />
        </mxCell>
        <mxCell id="ye3r3yw3m_dPBivQgIVM-269" value="" style="strokeColor=#DEEDFF" vertex="1" parent="1">
          <mxGeometry x="786.500000000002" y="380.00000000000387" width="20" height="520" as="geometry" />
        </mxCell>
        <mxCell id="ye3r3yw3m_dPBivQgIVM-268" value="" style="strokeColor=#DEEDFF" vertex="1" parent="1">
          <mxGeometry x="926.5000000000016" y="380.00000000001114" width="20" height="520" as="geometry" />
        </mxCell>
        <mxCell id="ye3r3yw3m_dPBivQgIVM-266" value="" style="strokeColor=#DEEDFF" vertex="1" parent="1">
          <mxGeometry x="1086.5000000000018" y="380.0000000000184" width="20" height="520" as="geometry" />
        </mxCell>
        <mxCell id="ye3r3yw3m_dPBivQgIVM-267" value="" style="strokeColor=#DEEDFF" vertex="1" parent="1">
          <mxGeometry x="1066.5000000000018" y="380.0000000000184" width="20" height="520" as="geometry" />
        </mxCell>
        <mxCell id="ye3r3yw3m_dPBivQgIVM-265" value="" style="strokeColor=#DEEDFF" vertex="1" parent="1">
          <mxGeometry x="1226.500000000002" y="380.00000000002206" width="20" height="520" as="geometry" />
        </mxCell>
        <mxCell id="ye3r3yw3m_dPBivQgIVM-264" value="" style="strokeColor=#DEEDFF" vertex="1" parent="1">
          <mxGeometry x="1206.500000000002" y="380.00000000002206" width="20" height="520" as="geometry" />
        </mxCell>
        <mxCell id="rIeb-zv8TYmmCxC6LYO3-318" value="10" style="fillColor=#23445D;strokeColor=#FFFFFF;strokeWidth=2;fontColor=#FFFFFF;fontStyle=1" parent="1" vertex="1">
          <mxGeometry x="1233.5000000000018" y="360.0000000000001" width="20" height="20" as="geometry" />
        </mxCell>
        <mxCell id="rIeb-zv8TYmmCxC6LYO3-319" value="17" style="fillColor=#23445D;strokeColor=#FFFFFF;strokeWidth=2;fontColor=#FFFFFF;fontStyle=1" parent="1" vertex="1">
          <mxGeometry x="1250.0000000000018" y="360.0000000000001" width="20" height="20" as="geometry" />
        </mxCell>
        <mxCell id="rIeb-zv8TYmmCxC6LYO3-320" value="24" style="fillColor=#23445D;strokeColor=#FFFFFF;strokeWidth=2;fontColor=#FFFFFF;fontStyle=1" parent="1" vertex="1">
          <mxGeometry x="1270" y="360" width="23.5" height="20" as="geometry" />
        </mxCell>
        <mxCell id="rIeb-zv8TYmmCxC6LYO3-304" value="22" style="fillColor=#23445D;strokeColor=#FFFFFF;strokeWidth=2;fontColor=#FFFFFF;fontStyle=1" parent="1" vertex="1">
          <mxGeometry x="1006.5" y="360" width="23.5" height="20" as="geometry" />
        </mxCell>
        <mxCell id="rIeb-zv8TYmmCxC6LYO3-306" value="1" style="fillColor=#23445D;strokeColor=#FFFFFF;strokeWidth=2;fontColor=#FFFFFF;fontStyle=1" parent="1" vertex="1">
          <mxGeometry x="1030.0000000000018" y="360.0000000000001" width="20" height="20" as="geometry" />
        </mxCell>
        <mxCell id="rIeb-zv8TYmmCxC6LYO3-307" value="8" style="fillColor=#23445D;strokeColor=#FFFFFF;strokeWidth=2;fontColor=#FFFFFF;fontStyle=1" parent="1" vertex="1">
          <mxGeometry x="1050.0000000000018" y="360.0000000000001" width="20" height="20" as="geometry" />
        </mxCell>
        <mxCell id="rIeb-zv8TYmmCxC6LYO3-308" value="15" style="fillColor=#23445D;strokeColor=#FFFFFF;strokeWidth=2;fontColor=#FFFFFF;fontStyle=1" parent="1" vertex="1">
          <mxGeometry x="1070.0000000000018" y="360.0000000000001" width="20" height="20" as="geometry" />
        </mxCell>
        <mxCell id="rIeb-zv8TYmmCxC6LYO3-309" value="22" style="fillColor=#23445D;strokeColor=#FFFFFF;strokeWidth=2;fontColor=#FFFFFF;fontStyle=1" parent="1" vertex="1">
          <mxGeometry x="1090.0000000000018" y="360.0000000000001" width="20" height="20" as="geometry" />
        </mxCell>
        <mxCell id="rIeb-zv8TYmmCxC6LYO3-310" value="29" style="fillColor=#23445D;strokeColor=#FFFFFF;strokeWidth=2;fontColor=#FFFFFF;fontStyle=1" parent="1" vertex="1">
          <mxGeometry x="1110" y="360" width="23.5" height="20" as="geometry" />
        </mxCell>
        <mxCell id="rIeb-zv8TYmmCxC6LYO3-312" value="5" style="fillColor=#23445D;strokeColor=#FFFFFF;strokeWidth=2;fontColor=#FFFFFF;fontStyle=1" parent="1" vertex="1">
          <mxGeometry x="1133.5000000000018" y="360.0000000000001" width="20" height="20" as="geometry" />
        </mxCell>
        <mxCell id="rIeb-zv8TYmmCxC6LYO3-313" value="12" style="fillColor=#23445D;strokeColor=#FFFFFF;strokeWidth=2;fontColor=#FFFFFF;fontStyle=1" parent="1" vertex="1">
          <mxGeometry x="1153.5000000000018" y="360.0000000000001" width="20" height="20" as="geometry" />
        </mxCell>
        <mxCell id="rIeb-zv8TYmmCxC6LYO3-314" value="19" style="fillColor=#23445D;strokeColor=#FFFFFF;strokeWidth=2;fontColor=#FFFFFF;fontStyle=1" parent="1" vertex="1">
          <mxGeometry x="1170.0000000000018" y="360.0000000000001" width="20" height="20" as="geometry" />
        </mxCell>
        <mxCell id="rIeb-zv8TYmmCxC6LYO3-315" value="26" style="fillColor=#23445D;strokeColor=#FFFFFF;strokeWidth=2;fontColor=#FFFFFF;fontStyle=1" parent="1" vertex="1">
          <mxGeometry x="1190" y="360" width="23.5" height="20" as="geometry" />
        </mxCell>
        <mxCell id="rIeb-zv8TYmmCxC6LYO3-317" value="3" style="fillColor=#23445D;strokeColor=#FFFFFF;strokeWidth=2;fontColor=#FFFFFF;fontStyle=1" parent="1" vertex="1">
          <mxGeometry x="1213.5000000000018" y="360.0000000000001" width="20" height="20" as="geometry" />
        </mxCell>
        <mxCell id="rIeb-zv8TYmmCxC6LYO3-288" value="14" style="fillColor=#23445D;strokeColor=#FFFFFF;strokeWidth=2;fontColor=#FFFFFF;fontStyle=1;fontSize=10;" parent="1" vertex="1">
          <mxGeometry x="810" y="360" width="20" height="20" as="geometry" />
        </mxCell>
        <mxCell id="rIeb-zv8TYmmCxC6LYO3-289" value="21" style="fillColor=#23445D;strokeColor=#FFFFFF;strokeWidth=2;fontColor=#FFFFFF;fontStyle=1" parent="1" vertex="1">
          <mxGeometry x="826.5000000000018" y="360.0000000000001" width="20" height="20" as="geometry" />
        </mxCell>
        <mxCell id="rIeb-zv8TYmmCxC6LYO3-290" value="28" style="fillColor=#23445D;strokeColor=#FFFFFF;strokeWidth=2;fontColor=#FFFFFF;fontStyle=1" parent="1" vertex="1">
          <mxGeometry x="846.5" y="360" width="23.5" height="20" as="geometry" />
        </mxCell>
        <mxCell id="rIeb-zv8TYmmCxC6LYO3-296" value="4" style="fillColor=#23445D;strokeColor=#FFFFFF;strokeWidth=2;fontColor=#FFFFFF;fontStyle=1" parent="1" vertex="1">
          <mxGeometry x="870.0000000000018" y="360.0000000000001" width="20" height="20" as="geometry" />
        </mxCell>
        <mxCell id="rIeb-zv8TYmmCxC6LYO3-297" value="11" style="fillColor=#23445D;strokeColor=#FFFFFF;strokeWidth=2;fontColor=#FFFFFF;fontStyle=1" parent="1" vertex="1">
          <mxGeometry x="890" y="360" width="20" height="20" as="geometry" />
        </mxCell>
        <mxCell id="rIeb-zv8TYmmCxC6LYO3-298" value="18" style="fillColor=#23445D;strokeColor=#FFFFFF;strokeWidth=2;fontColor=#FFFFFF;fontStyle=1" parent="1" vertex="1">
          <mxGeometry x="906.5000000000018" y="360.0000000000001" width="20" height="20" as="geometry" />
        </mxCell>
        <mxCell id="rIeb-zv8TYmmCxC6LYO3-299" value="25" style="fillColor=#23445D;strokeColor=#FFFFFF;strokeWidth=2;fontColor=#FFFFFF;fontStyle=1" parent="1" vertex="1">
          <mxGeometry x="926.5" y="360" width="23.5" height="20" as="geometry" />
        </mxCell>
        <mxCell id="rIeb-zv8TYmmCxC6LYO3-301" value="1" style="fillColor=#23445D;strokeColor=#FFFFFF;strokeWidth=2;fontColor=#FFFFFF;fontStyle=1" parent="1" vertex="1">
          <mxGeometry x="950.0000000000018" y="360.0000000000001" width="20" height="20" as="geometry" />
        </mxCell>
        <mxCell id="rIeb-zv8TYmmCxC6LYO3-302" value="8" style="fillColor=#23445D;strokeColor=#FFFFFF;strokeWidth=2;fontColor=#FFFFFF;fontStyle=1" parent="1" vertex="1">
          <mxGeometry x="970.0000000000018" y="360.0000000000001" width="20" height="20" as="geometry" />
        </mxCell>
        <mxCell id="rIeb-zv8TYmmCxC6LYO3-303" value="15" style="fillColor=#23445D;strokeColor=#FFFFFF;strokeWidth=2;fontColor=#FFFFFF;fontStyle=1" parent="1" vertex="1">
          <mxGeometry x="986.5000000000018" y="360.0000000000001" width="20" height="20" as="geometry" />
        </mxCell>
        <mxCell id="rIeb-zv8TYmmCxC6LYO3-287" value="7" style="fillColor=#23445D;strokeColor=#FFFFFF;strokeWidth=2;fontColor=#FFFFFF;fontStyle=1" parent="1" vertex="1">
          <mxGeometry x="790.0000000000018" y="360.0000000000001" width="20" height="20" as="geometry" />
        </mxCell>
        <mxCell id="63" value="1" style="strokeColor=#DEEDFF;fillColor=#ADC3D9" parent="1" vertex="1">
          <mxGeometry x="166.5" y="380" width="40" height="20" as="geometry" />
        </mxCell>
        <mxCell id="64" value="Dissertation" style="align=left;strokeColor=#DEEDFF;fillColor=#ADC3D9" parent="1" vertex="1">
          <mxGeometry x="206.5" y="380" width="320" height="20" as="geometry" />
        </mxCell>
        <mxCell id="66" value="19/10/20" style="strokeColor=#DEEDFF;fillColor=#ADC3D9" parent="1" vertex="1">
          <mxGeometry x="526.500000000002" y="380" width="80.00000000000028" height="20" as="geometry" />
        </mxCell>
        <mxCell id="67" value="7/05/21" style="strokeColor=#DEEDFF;fillColor=#ADC3D9" parent="1" vertex="1">
          <mxGeometry x="606.5000000000016" y="380.0000000000002" width="80.00000000000028" height="20" as="geometry" />
        </mxCell>
        <mxCell id="68" value="" style="strokeColor=#DEEDFF" parent="1" vertex="1">
          <mxGeometry x="686.500000000002" y="380.0000000000002" width="20" height="520" as="geometry" />
        </mxCell>
        <mxCell id="69" value="2" style="strokeColor=#DEEDFF;fillColor=#CCE5FF" parent="1" vertex="1">
          <mxGeometry x="166.50000000000026" y="399.9999999999999" width="40" height="20" as="geometry" />
        </mxCell>
        <mxCell id="70" value="Research and Planning Phase (Semester 1)" style="align=left;strokeColor=#DEEDFF;fillColor=#CCE5FF" parent="1" vertex="1">
          <mxGeometry x="206.50000000000026" y="399.9999999999999" width="319.9999999999998" height="20" as="geometry" />
        </mxCell>
        <mxCell id="72" value="" style="strokeColor=#DEEDFF;fillColor=#CCE5FF" parent="1" vertex="1">
          <mxGeometry x="526.5000000000023" y="399.99999999999983" width="80.00000000000028" height="20" as="geometry" />
        </mxCell>
        <mxCell id="73" value="" style="strokeColor=#DEEDFF;fillColor=#CCE5FF" parent="1" vertex="1">
          <mxGeometry x="606.5000000000018" y="400.0000000000001" width="80.00000000000028" height="20" as="geometry" />
        </mxCell>
        <mxCell id="74" value="3" style="strokeColor=#DEEDFF" parent="1" vertex="1">
          <mxGeometry x="166.50000000000028" y="419.9999999999998" width="40" height="20" as="geometry" />
        </mxCell>
        <mxCell id="75" value="Defining and condensing project aims and objectives&#xa;" style="align=left;strokeColor=#DEEDFF" parent="1" vertex="1">
          <mxGeometry x="206.5" y="420" width="320" height="30" as="geometry" />
        </mxCell>
        <mxCell id="77" value="30/10/20" style="strokeColor=#DEEDFF" parent="1" vertex="1">
          <mxGeometry x="526.5000000000023" y="419.9999999999997" width="80.00000000000028" height="20" as="geometry" />
        </mxCell>
        <mxCell id="78" value="21/12/20" style="strokeColor=#DEEDFF" parent="1" vertex="1">
          <mxGeometry x="606.5000000000018" y="420" width="80.00000000000028" height="20" as="geometry" />
        </mxCell>
        <mxCell id="79" value="4" style="strokeColor=#DEEDFF" parent="1" vertex="1">
          <mxGeometry x="166.5" y="440.00000000000017" width="40" height="20" as="geometry" />
        </mxCell>
        <mxCell id="80" value="Installation and Configuration of ML environment" style="align=left;strokeColor=#DEEDFF" parent="1" vertex="1">
          <mxGeometry x="206.5" y="440.00000000000017" width="320" height="20" as="geometry" />
        </mxCell>
        <mxCell id="82" value="05/12/20" style="strokeColor=#DEEDFF" parent="1" vertex="1">
          <mxGeometry x="526.500000000002" y="440.0000000000001" width="80.00000000000028" height="20" as="geometry" />
        </mxCell>
        <mxCell id="83" value="04/12/20" style="strokeColor=#DEEDFF" parent="1" vertex="1">
          <mxGeometry x="606.5000000000015" y="440.0000000000004" width="80.00000000000028" height="20" as="geometry" />
        </mxCell>
        <mxCell id="84" value="5" style="strokeColor=#DEEDFF" parent="1" vertex="1">
          <mxGeometry x="166.49999999999991" y="460.00000000000017" width="40" height="20" as="geometry" />
        </mxCell>
        <mxCell id="85" value="Further research into Apparent Age identification" style="align=left;strokeColor=#DEEDFF" parent="1" vertex="1">
          <mxGeometry x="206.49999999999991" y="460.00000000000017" width="320.0000000000001" height="20" as="geometry" />
        </mxCell>
        <mxCell id="87" value="05/12/20" style="strokeColor=#DEEDFF" parent="1" vertex="1">
          <mxGeometry x="526.5000000000019" y="460.0000000000001" width="80.00000000000028" height="20" as="geometry" />
        </mxCell>
        <mxCell id="88" value="28/12/20" style="strokeColor=#DEEDFF" parent="1" vertex="1">
          <mxGeometry x="606.5000000000015" y="460.0000000000004" width="80.00000000000028" height="20" as="geometry" />
        </mxCell>
        <mxCell id="89" value="6" style="strokeColor=#DEEDFF" parent="1" vertex="1">
          <mxGeometry x="166.4999999999999" y="480.00000000000045" width="40" height="20" as="geometry" />
        </mxCell>
        <mxCell id="90" value="Reseach into Data Augmentation" style="align=left;strokeColor=#DEEDFF" parent="1" vertex="1">
          <mxGeometry x="206.4999999999999" y="480.00000000000045" width="320.0000000000001" height="20" as="geometry" />
        </mxCell>
        <mxCell id="92" value="12/12/20" style="strokeColor=#DEEDFF" parent="1" vertex="1">
          <mxGeometry x="526.5000000000019" y="480.00000000000034" width="80.00000000000028" height="20" as="geometry" />
        </mxCell>
        <mxCell id="93" value="04/01/21" style="strokeColor=#DEEDFF" parent="1" vertex="1">
          <mxGeometry x="606.5000000000015" y="480.0000000000007" width="80.00000000000028" height="20" as="geometry" />
        </mxCell>
        <mxCell id="94" value="7" style="strokeColor=#DEEDFF" parent="1" vertex="1">
          <mxGeometry x="166.50000000000063" y="500.0000000000007" width="40" height="20" as="geometry" />
        </mxCell>
        <mxCell id="95" value="Reseach into Data Pre Processing" style="align=left;strokeColor=#DEEDFF" parent="1" vertex="1">
          <mxGeometry x="206.50000000000063" y="500.0000000000007" width="319.9999999999994" height="20" as="geometry" />
        </mxCell>
        <mxCell id="97" value="05/12/20" style="strokeColor=#DEEDFF" parent="1" vertex="1">
          <mxGeometry x="526.5000000000027" y="500.0000000000007" width="80.00000000000028" height="20" as="geometry" />
        </mxCell>
        <mxCell id="98" value="04/01/21" style="strokeColor=#DEEDFF" parent="1" vertex="1">
          <mxGeometry x="606.5000000000022" y="500.0000000000009" width="80.00000000000028" height="20" as="geometry" />
        </mxCell>
        <mxCell id="104" value="8" style="strokeColor=#DEEDFF;fillColor=#CCE5FF" parent="1" vertex="1">
          <mxGeometry x="166.50000000000037" y="520.000000000001" width="40" height="20" as="geometry" />
        </mxCell>
        <mxCell id="105" value="Action Phase (Semester 2)" style="align=left;strokeColor=#DEEDFF;fillColor=#CCE5FF" parent="1" vertex="1">
          <mxGeometry x="206.50000000000037" y="520.000000000001" width="319.99999999999966" height="20.00000000000003" as="geometry" />
        </mxCell>
        <mxCell id="107" value="" style="strokeColor=#DEEDFF;fillColor=#CCE5FF" parent="1" vertex="1">
          <mxGeometry x="526.5000000000025" y="520.0000000000009" width="80.00000000000028" height="20" as="geometry" />
        </mxCell>
        <mxCell id="108" value="" style="strokeColor=#DEEDFF;fillColor=#CCE5FF" parent="1" vertex="1">
          <mxGeometry x="606.5000000000018" y="520.0000000000013" width="80.00000000000028" height="20" as="geometry" />
        </mxCell>
        <mxCell id="109" value="10" style="strokeColor=#DEEDFF" parent="1" vertex="1">
          <mxGeometry x="166.50000000000028" y="540.000000000001" width="40" height="20" as="geometry" />
        </mxCell>
        <mxCell id="110" value="Training and Running models" style="align=left;strokeColor=#DEEDFF" parent="1" vertex="1">
          <mxGeometry x="206.50000000000028" y="540.000000000001" width="319.9999999999997" height="20" as="geometry" />
        </mxCell>
        <mxCell id="112" value="25/01/21" style="strokeColor=#DEEDFF" parent="1" vertex="1">
          <mxGeometry x="526.5000000000023" y="540.0000000000009" width="80.00000000000028" height="20" as="geometry" />
        </mxCell>
        <mxCell id="113" value="12/04/21" style="strokeColor=#DEEDFF" parent="1" vertex="1">
          <mxGeometry x="606.5000000000018" y="540.0000000000013" width="80.00000000000028" height="20" as="geometry" />
        </mxCell>
        <mxCell id="114" value="11" style="strokeColor=#DEEDFF" parent="1" vertex="1">
          <mxGeometry x="166.50000000000028" y="580.0000000000013" width="40" height="20" as="geometry" />
        </mxCell>
        <mxCell id="115" value="Creating initial model " style="align=left;strokeColor=#DEEDFF" parent="1" vertex="1">
          <mxGeometry x="206.50000000000028" y="580.0000000000013" width="319.9999999999997" height="20" as="geometry" />
        </mxCell>
        <mxCell id="117" value="25/01/21" style="strokeColor=#DEEDFF" parent="1" vertex="1">
          <mxGeometry x="526.5000000000023" y="580.0000000000011" width="80.00000000000028" height="20" as="geometry" />
        </mxCell>
        <mxCell id="118" value="15/02/21" style="strokeColor=#DEEDFF" parent="1" vertex="1">
          <mxGeometry x="606.5000000000018" y="580.0000000000015" width="80.00000000000028" height="20" as="geometry" />
        </mxCell>
        <mxCell id="119" value="14" style="strokeColor=#DEEDFF" parent="1" vertex="1">
          <mxGeometry x="166.49999999999997" y="620.0000000000016" width="40" height="20" as="geometry" />
        </mxCell>
        <mxCell id="120" value="Introduction and Background Research" style="align=left;strokeColor=#DEEDFF" parent="1" vertex="1">
          <mxGeometry x="206.49999999999997" y="620.0000000000016" width="320" height="20" as="geometry" />
        </mxCell>
        <mxCell id="122" value="22/01/21" style="strokeColor=#DEEDFF" parent="1" vertex="1">
          <mxGeometry x="526.500000000002" y="620.0000000000015" width="80.00000000000028" height="20" as="geometry" />
        </mxCell>
        <mxCell id="123" value="22/02/21" style="strokeColor=#DEEDFF" parent="1" vertex="1">
          <mxGeometry x="606.5000000000015" y="620.0000000000018" width="80.00000000000028" height="20" as="geometry" />
        </mxCell>
        <mxCell id="124" value="15" style="strokeColor=#DEEDFF" parent="1" vertex="1">
          <mxGeometry x="166.5" y="640.0000000000014" width="40" height="20" as="geometry" />
        </mxCell>
        <mxCell id="125" value="Design and Implementation " style="align=left;strokeColor=#DEEDFF" parent="1" vertex="1">
          <mxGeometry x="206.5" y="640.0000000000014" width="320" height="20" as="geometry" />
        </mxCell>
        <mxCell id="127" value="22/02/21" style="strokeColor=#DEEDFF" parent="1" vertex="1">
          <mxGeometry x="526.500000000002" y="640.0000000000014" width="80.00000000000028" height="20" as="geometry" />
        </mxCell>
        <mxCell id="128" value="15/03/21" style="strokeColor=#DEEDFF" parent="1" vertex="1">
          <mxGeometry x="606.5000000000015" y="640.0000000000016" width="80.00000000000028" height="20" as="geometry" />
        </mxCell>
        <mxCell id="134" value="17" style="strokeColor=#DEEDFF;fillColor=#FFFFFF" parent="1" vertex="1">
          <mxGeometry x="166.49999999999963" y="680.0000000000018" width="40" height="20" as="geometry" />
        </mxCell>
        <mxCell id="135" value="Evaluation and Conclusion" style="align=left;strokeColor=#DEEDFF;fillColor=#FFFFFF" parent="1" vertex="1">
          <mxGeometry x="206.49999999999963" y="680.0000000000018" width="320.00000000000034" height="20" as="geometry" />
        </mxCell>
        <mxCell id="137" value="12/04/21" style="strokeColor=#DEEDFF;fillColor=#FFFFFF" parent="1" vertex="1">
          <mxGeometry x="526.5000000000016" y="680.0000000000018" width="80.00000000000028" height="20" as="geometry" />
        </mxCell>
        <mxCell id="138" value="03/05/21" style="strokeColor=#DEEDFF;fillColor=#FFFFFF" parent="1" vertex="1">
          <mxGeometry x="606.5000000000011" y="680.000000000002" width="80.00000000000028" height="20" as="geometry" />
        </mxCell>
        <mxCell id="139" value="18" style="strokeColor=#DEEDFF;fillColor=#CCE5FF" parent="1" vertex="1">
          <mxGeometry x="166.4999999999996" y="700.000000000002" width="40" height="20" as="geometry" />
        </mxCell>
        <mxCell id="140" value="Key Dates" style="align=left;strokeColor=#DEEDFF;fillColor=#CCE5FF" parent="1" vertex="1">
          <mxGeometry x="206.49999999999955" y="700.000000000002" width="320.0000000000004" height="20" as="geometry" />
        </mxCell>
        <mxCell id="142" value="" style="strokeColor=#DEEDFF;fillColor=#CCE5FF" parent="1" vertex="1">
          <mxGeometry x="526.5000000000016" y="700.000000000002" width="80.00000000000028" height="20" as="geometry" />
        </mxCell>
        <mxCell id="143" value="" style="strokeColor=#DEEDFF;fillColor=#CCE5FF" parent="1" vertex="1">
          <mxGeometry x="606.5000000000011" y="700.0000000000023" width="80.00000000000028" height="20" as="geometry" />
        </mxCell>
        <mxCell id="145" value="Project Presentation" style="align=left;strokeColor=#DEEDFF" parent="1" vertex="1">
          <mxGeometry x="206.50000000000102" y="720.0000000000023" width="319.999999999999" height="20" as="geometry" />
        </mxCell>
        <mxCell id="147" value="11/12/20" style="strokeColor=#DEEDFF" parent="1" vertex="1">
          <mxGeometry x="526.500000000003" y="720.0000000000023" width="80.00000000000028" height="20" as="geometry" />
        </mxCell>
        <mxCell id="148" value="11/12/20" style="strokeColor=#DEEDFF" parent="1" vertex="1">
          <mxGeometry x="606.5000000000025" y="720.0000000000025" width="80.00000000000028" height="20" as="geometry" />
        </mxCell>
        <mxCell id="149" value="" style="strokeColor=#DEEDFF" parent="1" vertex="1">
          <mxGeometry x="166.50000000000102" y="740.0000000000022" width="40" height="20" as="geometry" />
        </mxCell>
        <mxCell id="150" value="" style="align=left;strokeColor=#DEEDFF" parent="1" vertex="1">
          <mxGeometry x="206.50000000000102" y="740.0000000000022" width="319.999999999999" height="20" as="geometry" />
        </mxCell>
        <mxCell id="152" value="" style="strokeColor=#DEEDFF" parent="1" vertex="1">
          <mxGeometry x="526.500000000003" y="740.000000000002" width="80.00000000000028" height="20" as="geometry" />
        </mxCell>
        <mxCell id="153" value="" style="strokeColor=#DEEDFF" parent="1" vertex="1">
          <mxGeometry x="606.5000000000025" y="740.0000000000024" width="80.00000000000028" height="20" as="geometry" />
        </mxCell>
        <mxCell id="154" value="" style="strokeColor=#DEEDFF" parent="1" vertex="1">
          <mxGeometry x="166.50000000000074" y="760.0000000000025" width="40" height="20" as="geometry" />
        </mxCell>
        <mxCell id="155" value="Project Proposal" style="align=left;strokeColor=#DEEDFF" parent="1" vertex="1">
          <mxGeometry x="206.50000000000068" y="760.0000000000025" width="319.99999999999926" height="20" as="geometry" />
        </mxCell>
        <mxCell id="157" value="22/01/20" style="strokeColor=#DEEDFF" parent="1" vertex="1">
          <mxGeometry x="526.5000000000027" y="760.0000000000025" width="80.00000000000028" height="20" as="geometry" />
        </mxCell>
        <mxCell id="158" value="22/01/20" style="strokeColor=#DEEDFF" parent="1" vertex="1">
          <mxGeometry x="606.5000000000023" y="760.0000000000027" width="80.00000000000028" height="20" as="geometry" />
        </mxCell>
        <mxCell id="159" value="" style="strokeColor=#DEEDFF" parent="1" vertex="1">
          <mxGeometry x="166.50000000000068" y="780.0000000000025" width="40" height="20" as="geometry" />
        </mxCell>
        <mxCell id="160" value="Coursework Deadlines" style="align=left;strokeColor=#DEEDFF" parent="1" vertex="1">
          <mxGeometry x="206.50000000000068" y="780.0000000000025" width="319.9999999999993" height="20" as="geometry" />
        </mxCell>
        <mxCell id="162" value="11/01/21" style="strokeColor=#DEEDFF" parent="1" vertex="1">
          <mxGeometry x="526.5000000000027" y="780.0000000000025" width="80.00000000000028" height="20" as="geometry" />
        </mxCell>
        <mxCell id="163" value="15/01/21" style="strokeColor=#DEEDFF" parent="1" vertex="1">
          <mxGeometry x="606.5000000000023" y="780.0000000000027" width="80.00000000000028" height="20" as="geometry" />
        </mxCell>
        <mxCell id="164" value="" style="strokeColor=#DEEDFF" parent="1" vertex="1">
          <mxGeometry x="166.50000000000068" y="800.0000000000027" width="40" height="20" as="geometry" />
        </mxCell>
        <mxCell id="165" value="" style="align=left;strokeColor=#DEEDFF" parent="1" vertex="1">
          <mxGeometry x="206.50000000000068" y="800.0000000000027" width="319.9999999999993" height="20" as="geometry" />
        </mxCell>
        <mxCell id="167" value="" style="strokeColor=#DEEDFF" parent="1" vertex="1">
          <mxGeometry x="526.5000000000027" y="800.0000000000027" width="80.00000000000028" height="20" as="geometry" />
        </mxCell>
        <mxCell id="168" value="" style="strokeColor=#DEEDFF" parent="1" vertex="1">
          <mxGeometry x="606.5000000000023" y="800.0000000000032" width="80.00000000000028" height="20" as="geometry" />
        </mxCell>
        <mxCell id="170" value="" style="align=left;strokeColor=#DEEDFF" parent="1" vertex="1">
          <mxGeometry x="206.50000000000136" y="820.0000000000032" width="319.99999999999864" height="20" as="geometry" />
        </mxCell>
        <mxCell id="172" value="26/03/20" style="strokeColor=#DEEDFF" parent="1" vertex="1">
          <mxGeometry x="526.5000000000034" y="820.000000000003" width="80.00000000000028" height="20" as="geometry" />
        </mxCell>
        <mxCell id="173" value="26/03/20" style="strokeColor=#DEEDFF" parent="1" vertex="1">
          <mxGeometry x="606.500000000003" y="820.0000000000032" width="80.00000000000028" height="20" as="geometry" />
        </mxCell>
        <mxCell id="174" value="" style="strokeColor=#DEEDFF" parent="1" vertex="1">
          <mxGeometry x="166.50000000000136" y="840.000000000003" width="40" height="20" as="geometry" />
        </mxCell>
        <mxCell id="175" value="Poster / Demo" style="align=left;strokeColor=#DEEDFF" parent="1" vertex="1">
          <mxGeometry x="206.50000000000136" y="840.000000000003" width="319.99999999999864" height="20" as="geometry" />
        </mxCell>
        <mxCell id="177" value="" style="strokeColor=#DEEDFF" parent="1" vertex="1">
          <mxGeometry x="526.5000000000034" y="840.000000000003" width="80.00000000000028" height="20" as="geometry" />
        </mxCell>
        <mxCell id="178" value="" style="strokeColor=#DEEDFF" parent="1" vertex="1">
          <mxGeometry x="606.500000000003" y="840.0000000000032" width="80.00000000000028" height="20" as="geometry" />
        </mxCell>
        <mxCell id="179" value="" style="strokeColor=#DEEDFF" parent="1" vertex="1">
          <mxGeometry x="166.50000000000114" y="860.0000000000034" width="40" height="20" as="geometry" />
        </mxCell>
        <mxCell id="180" value="Draft" style="align=left;strokeColor=#DEEDFF" parent="1" vertex="1">
          <mxGeometry x="206.50000000000114" y="860.0000000000034" width="319.99999999999886" height="20" as="geometry" />
        </mxCell>
        <mxCell id="182" value="29/03/21" style="strokeColor=#DEEDFF" parent="1" vertex="1">
          <mxGeometry x="526.5000000000032" y="860.0000000000032" width="80.00000000000028" height="20" as="geometry" />
        </mxCell>
        <mxCell id="183" value="29/03/21" style="strokeColor=#DEEDFF" parent="1" vertex="1">
          <mxGeometry x="916.5000000000026" y="1110.0000000000036" width="80.00000000000028" height="20" as="geometry" />
        </mxCell>
        <mxCell id="184" value="" style="strokeColor=#DEEDFF" parent="1" vertex="1">
          <mxGeometry x="166.5" y="880" width="40" height="20" as="geometry" />
        </mxCell>
        <mxCell id="185" value="" style="align=left;strokeColor=#DEEDFF" parent="1" vertex="1">
          <mxGeometry x="206.50000000000102" y="880.0000000000034" width="319.999999999999" height="20" as="geometry" />
        </mxCell>
        <mxCell id="187" value="" style="strokeColor=#DEEDFF" parent="1" vertex="1">
          <mxGeometry x="526.5000000000031" y="880.0000000000032" width="80.00000000000028" height="20" as="geometry" />
        </mxCell>
        <mxCell id="188" value="" style="strokeColor=#DEEDFF" parent="1" vertex="1">
          <mxGeometry x="606.5000000000026" y="880.0000000000036" width="80.00000000000028" height="20" as="geometry" />
        </mxCell>
        <mxCell id="189" value="" style="strokeColor=#DEEDFF" parent="1" vertex="1">
          <mxGeometry x="166.50000000000102" y="900.0000000000036" width="40" height="20" as="geometry" />
        </mxCell>
        <mxCell id="190" value="" style="align=left;strokeColor=#DEEDFF" parent="1" vertex="1">
          <mxGeometry x="206.50000000000102" y="900.0000000000036" width="319.999999999999" height="20" as="geometry" />
        </mxCell>
        <mxCell id="192" value="" style="strokeColor=#DEEDFF" parent="1" vertex="1">
          <mxGeometry x="526.5000000000031" y="900.0000000000036" width="80.00000000000028" height="20" as="geometry" />
        </mxCell>
        <mxCell id="193" value="" style="strokeColor=#DEEDFF" parent="1" vertex="1">
          <mxGeometry x="606.5000000000026" y="900.0000000000039" width="80.00000000000028" height="20" as="geometry" />
        </mxCell>
        <mxCell id="194" value="" style="strokeColor=#DEEDFF" parent="1" vertex="1">
          <mxGeometry x="706.500000000002" y="380.00000000000387" width="20" height="520" as="geometry" />
        </mxCell>
        <mxCell id="195" value="" style="strokeColor=#DEEDFF" parent="1" vertex="1">
          <mxGeometry x="726.500000000002" y="380.00000000000387" width="20" height="520" as="geometry" />
        </mxCell>
        <mxCell id="196" value="" style="strokeColor=#DEEDFF" parent="1" vertex="1">
          <mxGeometry x="746.500000000002" y="380.00000000000387" width="20" height="520" as="geometry" />
        </mxCell>
        <mxCell id="197" value="" style="strokeColor=#DEEDFF" parent="1" vertex="1">
          <mxGeometry x="766.500000000002" y="380.00000000000387" width="20" height="520" as="geometry" />
        </mxCell>
        <mxCell id="200" value="" style="strokeColor=#DEEDFF" parent="1" vertex="1">
          <mxGeometry x="826.500000000002" y="380.0000000000075" width="20" height="520" as="geometry" />
        </mxCell>
        <mxCell id="201" value="" style="strokeColor=#DEEDFF" parent="1" vertex="1">
          <mxGeometry x="846.5000000000016" y="380.0000000000075" width="20" height="520" as="geometry" />
        </mxCell>
        <mxCell id="202" value="" style="strokeColor=#DEEDFF" parent="1" vertex="1">
          <mxGeometry x="866.5000000000016" y="380.00000000001114" width="20" height="520" as="geometry" />
        </mxCell>
        <mxCell id="203" value="" style="strokeColor=#DEEDFF" parent="1" vertex="1">
          <mxGeometry x="886.5000000000016" y="380.00000000001114" width="20" height="520" as="geometry" />
        </mxCell>
        <mxCell id="204" value="" style="strokeColor=#DEEDFF" parent="1" vertex="1">
          <mxGeometry x="906.5000000000016" y="380.00000000001114" width="20" height="520" as="geometry" />
        </mxCell>
        <mxCell id="206" value="" style="strokeColor=#DEEDFF;fillColor=#D4E1FF" parent="1" vertex="1">
          <mxGeometry x="946.5000000000018" y="380.0000000000148" width="20" height="520" as="geometry" />
        </mxCell>
        <mxCell id="207" value="" style="strokeColor=#DEEDFF" parent="1" vertex="1">
          <mxGeometry x="966.5000000000018" y="380.0000000000148" width="20" height="520" as="geometry" />
        </mxCell>
        <mxCell id="208" value="" style="strokeColor=#DEEDFF" parent="1" vertex="1">
          <mxGeometry x="986.5000000000018" y="380.0000000000148" width="20" height="520" as="geometry" />
        </mxCell>
        <mxCell id="209" value="" style="strokeColor=#DEEDFF" parent="1" vertex="1">
          <mxGeometry x="1006.5000000000018" y="380.0000000000002" width="20" height="520" as="geometry" />
        </mxCell>
        <mxCell id="210" value="" style="strokeColor=#DEEDFF" parent="1" vertex="1">
          <mxGeometry x="1026.5000000000018" y="380.00000000000387" width="20" height="520" as="geometry" />
        </mxCell>
        <mxCell id="211" value="" style="strokeColor=#DEEDFF" parent="1" vertex="1">
          <mxGeometry x="1046.5000000000018" y="380.00000000000387" width="20" height="520" as="geometry" />
        </mxCell>
        <mxCell id="214" value="" style="strokeColor=#DEEDFF" parent="1" vertex="1">
          <mxGeometry x="1106.5000000000018" y="380.0000000000184" width="20" height="520" as="geometry" />
        </mxCell>
        <mxCell id="215" value="" style="strokeColor=#DEEDFF" parent="1" vertex="1">
          <mxGeometry x="1126.5000000000018" y="380.0000000000184" width="20" height="520" as="geometry" />
        </mxCell>
        <mxCell id="216" value="" style="strokeColor=#DEEDFF" parent="1" vertex="1">
          <mxGeometry x="1146.5000000000018" y="380.0000000000184" width="20" height="520" as="geometry" />
        </mxCell>
        <mxCell id="217" value="" style="strokeColor=#DEEDFF" parent="1" vertex="1">
          <mxGeometry x="1166.500000000002" y="380.0000000000184" width="20" height="520" as="geometry" />
        </mxCell>
        <mxCell id="218" value="" style="strokeColor=#DEEDFF" parent="1" vertex="1">
          <mxGeometry x="1186.500000000002" y="380.00000000002206" width="20" height="520" as="geometry" />
        </mxCell>
        <mxCell id="221" value="" style="strokeColor=#DEEDFF" parent="1" vertex="1">
          <mxGeometry x="1246.500000000002" y="380.00000000002206" width="20" height="520" as="geometry" />
        </mxCell>
        <mxCell id="222" value="" style="strokeColor=#DEEDFF" parent="1" vertex="1">
          <mxGeometry x="1266.500000000002" y="380.0000000000257" width="20" height="520" as="geometry" />
        </mxCell>
        <mxCell id="223" value="" style="strokeColor=#DEEDFF" parent="1" vertex="1">
          <mxGeometry x="1286.500000000002" y="380.0000000000257" width="20" height="520" as="geometry" />
        </mxCell>
        <mxCell id="2" value="Task Name" style="fillColor=#23445D;strokeColor=#FFFFFF;strokeWidth=2;fontColor=#FFFFFF;fontStyle=1" parent="1" vertex="1">
          <mxGeometry x="206.5" y="340" width="320" height="40" as="geometry" />
        </mxCell>
        <mxCell id="3" value="" style="fillColor=#23445D;strokeColor=#FFFFFF;strokeWidth=2;fontColor=#FFFFFF;fontStyle=1" parent="1" vertex="1">
          <mxGeometry x="166.5" y="340" width="40" height="40" as="geometry" />
        </mxCell>
        <mxCell id="4" value="November" style="fillColor=#23445D;strokeColor=#FFFFFF;strokeWidth=2;fontColor=#FFFFFF;fontStyle=1" parent="1" vertex="1">
          <mxGeometry x="686.5" y="340" width="103.5" height="20" as="geometry" />
        </mxCell>
        <mxCell id="5" value="2" style="fillColor=#23445D;strokeColor=#FFFFFF;strokeWidth=2;fontColor=#FFFFFF;fontStyle=1" parent="1" vertex="1">
          <mxGeometry x="686.5000000000018" y="360.0000000000001" width="20" height="20" as="geometry" />
        </mxCell>
        <mxCell id="6" value="9" style="fillColor=#23445D;strokeColor=#FFFFFF;strokeWidth=2;fontColor=#FFFFFF;fontStyle=1" parent="1" vertex="1">
          <mxGeometry x="706.5000000000018" y="360.0000000000001" width="20" height="20" as="geometry" />
        </mxCell>
        <mxCell id="7" value="16" style="fillColor=#23445D;strokeColor=#FFFFFF;strokeWidth=2;fontColor=#FFFFFF;fontStyle=1" parent="1" vertex="1">
          <mxGeometry x="726.5000000000018" y="360.0000000000001" width="20" height="20" as="geometry" />
        </mxCell>
        <mxCell id="8" value="23" style="fillColor=#23445D;strokeColor=#FFFFFF;strokeWidth=2;fontColor=#FFFFFF;fontStyle=1" parent="1" vertex="1">
          <mxGeometry x="746.5000000000018" y="360.0000000000001" width="20" height="20" as="geometry" />
        </mxCell>
        <mxCell id="9" value="30" style="fillColor=#23445D;strokeColor=#FFFFFF;strokeWidth=2;fontColor=#FFFFFF;fontStyle=1" parent="1" vertex="1">
          <mxGeometry x="766.5" y="360" width="23.5" height="20" as="geometry" />
        </mxCell>
        <mxCell id="13" value="Start" style="fillColor=#23445D;strokeColor=#FFFFFF;strokeWidth=2;fontColor=#FFFFFF;fontStyle=1" parent="1" vertex="1">
          <mxGeometry x="526.5000000000018" y="340.00000000000006" width="80.00000000000006" height="40.00000000000001" as="geometry" />
        </mxCell>
        <mxCell id="14" value="End" style="fillColor=#23445D;strokeColor=#FFFFFF;strokeWidth=2;fontColor=#FFFFFF;fontStyle=1" parent="1" vertex="1">
          <mxGeometry x="606.5000000000019" y="340.0000000000001" width="80.00000000000006" height="40.00000000000001" as="geometry" />
        </mxCell>
        <mxCell id="244" value="" style="shape=mxgraph.flowchart.process;strokeWidth=2;opacity=50;fillColor=#26AE2B;" parent="1" vertex="1">
          <mxGeometry x="686.5" y="420" width="203.5" height="20" as="geometry" />
        </mxCell>
        <mxCell id="254" value="" style="shape=mxgraph.flowchart.process;fillColor=#AE4132;strokeWidth=2;opacity=100;strokeColor=none;" parent="1" vertex="1">
          <mxGeometry x="686.5" y="380" width="563.5" height="20" as="geometry" />
        </mxCell>
        <mxCell id="rIeb-zv8TYmmCxC6LYO3-286" value="December" style="fillColor=#23445D;strokeColor=#FFFFFF;strokeWidth=2;fontColor=#FFFFFF;fontStyle=1" parent="1" vertex="1">
          <mxGeometry x="790" y="340" width="80" height="20" as="geometry" />
        </mxCell>
        <mxCell id="rIeb-zv8TYmmCxC6LYO3-295" value="January" style="fillColor=#23445D;strokeColor=#FFFFFF;strokeWidth=2;fontColor=#FFFFFF;fontStyle=1" parent="1" vertex="1">
          <mxGeometry x="870" y="340" width="80" height="20" as="geometry" />
        </mxCell>
        <mxCell id="rIeb-zv8TYmmCxC6LYO3-300" value="February" style="fillColor=#23445D;strokeColor=#FFFFFF;strokeWidth=2;fontColor=#FFFFFF;fontStyle=1" parent="1" vertex="1">
          <mxGeometry x="950" y="340" width="80" height="20" as="geometry" />
        </mxCell>
        <mxCell id="rIeb-zv8TYmmCxC6LYO3-305" value="March" style="fillColor=#23445D;strokeColor=#FFFFFF;strokeWidth=2;fontColor=#FFFFFF;fontStyle=1" parent="1" vertex="1">
          <mxGeometry x="1030" y="340" width="103.5" height="20" as="geometry" />
        </mxCell>
        <mxCell id="rIeb-zv8TYmmCxC6LYO3-311" value="April" style="fillColor=#23445D;strokeColor=#FFFFFF;strokeWidth=2;fontColor=#FFFFFF;fontStyle=1" parent="1" vertex="1">
          <mxGeometry x="1133.5" y="340" width="80" height="20" as="geometry" />
        </mxCell>
        <mxCell id="rIeb-zv8TYmmCxC6LYO3-316" value="May" style="fillColor=#23445D;strokeColor=#FFFFFF;strokeWidth=2;fontColor=#FFFFFF;fontStyle=1" parent="1" vertex="1">
          <mxGeometry x="1213.5" y="340" width="80" height="20" as="geometry" />
        </mxCell>
        <mxCell id="rIeb-zv8TYmmCxC6LYO3-325" value="" style="shape=mxgraph.flowchart.process;fillColor=#AE4132;strokeColor=none;strokeWidth=2;opacity=50" parent="1" vertex="1">
          <mxGeometry x="926.5" y="720" width="20" height="20" as="geometry" />
        </mxCell>
        <mxCell id="262" value="" style="shape=mxgraph.flowchart.process;fillColor=#AE4132;strokeColor=none;strokeWidth=2;opacity=50" parent="1" vertex="1">
          <mxGeometry x="786.5" y="720" width="20" height="20" as="geometry" />
        </mxCell>
        <mxCell id="rIeb-zv8TYmmCxC6LYO3-328" value="" style="shape=mxgraph.flowchart.process;fillColor=#AE4132;strokeColor=none;strokeWidth=2;opacity=50" parent="1" vertex="1">
          <mxGeometry x="1066.5" y="760" width="20" height="20" as="geometry" />
        </mxCell>
        <mxCell id="rIeb-zv8TYmmCxC6LYO3-330" value="" style="shape=mxgraph.flowchart.process;strokeWidth=2;opacity=50;fillColor=#26AE2B;" parent="1" vertex="1">
          <mxGeometry x="786.5" y="440" width="43.5" height="20" as="geometry" />
        </mxCell>
        <mxCell id="rIeb-zv8TYmmCxC6LYO3-331" value="" style="shape=mxgraph.flowchart.process;strokeWidth=2;opacity=50;fillColor=#26AE2B;" parent="1" vertex="1">
          <mxGeometry x="786.5" y="460" width="83.5" height="20" as="geometry" />
        </mxCell>
        <mxCell id="rIeb-zv8TYmmCxC6LYO3-332" value="" style="shape=mxgraph.flowchart.process;strokeWidth=2;opacity=50;fillColor=#26AE2B;" parent="1" vertex="1">
          <mxGeometry x="806.5" y="480" width="83.5" height="20" as="geometry" />
        </mxCell>
        <mxCell id="rIeb-zv8TYmmCxC6LYO3-334" value="" style="shape=mxgraph.flowchart.process;strokeWidth=2;opacity=50;fillColor=#26AE2B;strokeColor=#060804;" parent="1" vertex="1">
          <mxGeometry x="926.5" y="540" width="243.5" height="20" as="geometry" />
        </mxCell>
        <mxCell id="rIeb-zv8TYmmCxC6LYO3-335" value="" style="shape=mxgraph.flowchart.process;strokeWidth=2;opacity=50;fillColor=#26AE2B;" parent="1" vertex="1">
          <mxGeometry x="926.5" y="560" width="83.5" height="20" as="geometry" />
        </mxCell>
        <mxCell id="rIeb-zv8TYmmCxC6LYO3-341" value="" style="shape=mxgraph.flowchart.process;fillColor=#AE4132;strokeColor=none;strokeWidth=2;opacity=50" parent="1" vertex="1">
          <mxGeometry x="886.5" y="760" width="63.5" height="20" as="geometry" />
        </mxCell>
        <mxCell id="rIeb-zv8TYmmCxC6LYO3-343" value="12/12/20" style="strokeColor=#DEEDFF" parent="1" vertex="1">
          <mxGeometry x="526.5000000000027" y="500.0000000000007" width="80.00000000000028" height="20" as="geometry" />
        </mxCell>
        <mxCell id="ye3r3yw3m_dPBivQgIVM-271" value="" style="shape=mxgraph.flowchart.process;strokeWidth=2;opacity=50;fillColor=#26AE2B;" vertex="1" parent="1">
          <mxGeometry x="806.5" y="500" width="83.5" height="20" as="geometry" />
        </mxCell>
        <mxCell id="ye3r3yw3m_dPBivQgIVM-272" value="11" style="strokeColor=#DEEDFF" vertex="1" parent="1">
          <mxGeometry x="166.50000000000028" y="560.0000000000013" width="40" height="20" as="geometry" />
        </mxCell>
        <mxCell id="ye3r3yw3m_dPBivQgIVM-273" value="Creating initial model " style="align=left;strokeColor=#DEEDFF" vertex="1" parent="1">
          <mxGeometry x="206.50000000000028" y="560.0000000000013" width="319.9999999999997" height="20" as="geometry" />
        </mxCell>
        <mxCell id="ye3r3yw3m_dPBivQgIVM-274" value="25/01/21" style="strokeColor=#DEEDFF" vertex="1" parent="1">
          <mxGeometry x="526.5000000000023" y="560.0000000000011" width="80.00000000000028" height="20" as="geometry" />
        </mxCell>
        <mxCell id="ye3r3yw3m_dPBivQgIVM-275" value="15/02/21" style="strokeColor=#DEEDFF" vertex="1" parent="1">
          <mxGeometry x="606.5000000000018" y="560.0000000000015" width="80.00000000000028" height="20" as="geometry" />
        </mxCell>
        <mxCell id="ye3r3yw3m_dPBivQgIVM-276" value="12" style="strokeColor=#DEEDFF" vertex="1" parent="1">
          <mxGeometry x="166.50000000000028" y="580.0000000000013" width="40" height="20" as="geometry" />
        </mxCell>
        <mxCell id="ye3r3yw3m_dPBivQgIVM-277" value="Tweaking model elements to perform experiments" style="align=left;strokeColor=#DEEDFF" vertex="1" parent="1">
          <mxGeometry x="206.50000000000028" y="580.0000000000013" width="319.9999999999997" height="20" as="geometry" />
        </mxCell>
        <mxCell id="ye3r3yw3m_dPBivQgIVM-278" value="15/02/21" style="strokeColor=#DEEDFF" vertex="1" parent="1">
          <mxGeometry x="526.5000000000023" y="580.0000000000011" width="80.00000000000028" height="20" as="geometry" />
        </mxCell>
        <mxCell id="ye3r3yw3m_dPBivQgIVM-279" value="29/03/21" style="strokeColor=#DEEDFF" vertex="1" parent="1">
          <mxGeometry x="606.5000000000018" y="580.0000000000015" width="80.00000000000028" height="20" as="geometry" />
        </mxCell>
        <mxCell id="ye3r3yw3m_dPBivQgIVM-280" value="" style="shape=mxgraph.flowchart.process;strokeWidth=2;opacity=50;fillColor=#26AE2B;" vertex="1" parent="1">
          <mxGeometry x="1010" y="580" width="120" height="20" as="geometry" />
        </mxCell>
        <mxCell id="ye3r3yw3m_dPBivQgIVM-281" value="13" style="strokeColor=#DEEDFF;fillColor=#CCE5FF" vertex="1" parent="1">
          <mxGeometry x="166.50000000000037" y="600.000000000001" width="40" height="20" as="geometry" />
        </mxCell>
        <mxCell id="ye3r3yw3m_dPBivQgIVM-282" value="Dissertation Write up (Semester 2)" style="align=left;strokeColor=#DEEDFF;fillColor=#CCE5FF" vertex="1" parent="1">
          <mxGeometry x="206.50000000000037" y="600.000000000001" width="319.99999999999966" height="20.00000000000003" as="geometry" />
        </mxCell>
        <mxCell id="ye3r3yw3m_dPBivQgIVM-283" value="" style="strokeColor=#DEEDFF;fillColor=#CCE5FF" vertex="1" parent="1">
          <mxGeometry x="526.5000000000025" y="600.0000000000009" width="80.00000000000028" height="20" as="geometry" />
        </mxCell>
        <mxCell id="ye3r3yw3m_dPBivQgIVM-284" value="" style="strokeColor=#DEEDFF;fillColor=#CCE5FF" vertex="1" parent="1">
          <mxGeometry x="606.5000000000018" y="600.0000000000013" width="80.00000000000028" height="20" as="geometry" />
        </mxCell>
        <mxCell id="ye3r3yw3m_dPBivQgIVM-285" value="" style="shape=mxgraph.flowchart.process;strokeWidth=2;opacity=50;fillColor=#26AE2B;" vertex="1" parent="1">
          <mxGeometry x="928.25" y="620" width="103.5" height="20" as="geometry" />
        </mxCell>
        <mxCell id="ye3r3yw3m_dPBivQgIVM-286" value="" style="shape=mxgraph.flowchart.process;strokeWidth=2;opacity=50;fillColor=#26AE2B;" vertex="1" parent="1">
          <mxGeometry x="1031.75" y="640" width="58.25" height="20" as="geometry" />
        </mxCell>
        <mxCell id="ye3r3yw3m_dPBivQgIVM-287" value="16" style="strokeColor=#DEEDFF" vertex="1" parent="1">
          <mxGeometry x="166.5" y="660.0000000000014" width="40" height="20" as="geometry" />
        </mxCell>
        <mxCell id="ye3r3yw3m_dPBivQgIVM-288" value="Results " style="align=left;strokeColor=#DEEDFF" vertex="1" parent="1">
          <mxGeometry x="206.5" y="660.0000000000014" width="320" height="20" as="geometry" />
        </mxCell>
        <mxCell id="ye3r3yw3m_dPBivQgIVM-289" value="15/02/21" style="strokeColor=#DEEDFF" vertex="1" parent="1">
          <mxGeometry x="526.500000000002" y="660.0000000000014" width="80.00000000000028" height="20" as="geometry" />
        </mxCell>
        <mxCell id="ye3r3yw3m_dPBivQgIVM-290" value="12/04/21" style="strokeColor=#DEEDFF" vertex="1" parent="1">
          <mxGeometry x="606.5000000000015" y="660.0000000000016" width="80.00000000000028" height="20" as="geometry" />
        </mxCell>
        <mxCell id="ye3r3yw3m_dPBivQgIVM-291" value="" style="shape=mxgraph.flowchart.process;strokeWidth=2;opacity=50;fillColor=#26AE2B;" vertex="1" parent="1">
          <mxGeometry x="1144.38" y="680" width="85.62" height="20" as="geometry" />
        </mxCell>
        <mxCell id="ye3r3yw3m_dPBivQgIVM-292" value="" style="shape=mxgraph.flowchart.process;strokeWidth=2;opacity=50;fillColor=#26AE2B;" vertex="1" parent="1">
          <mxGeometry x="1010" y="660" width="160" height="20" as="geometry" />
        </mxCell>
        <mxCell id="ye3r3yw3m_dPBivQgIVM-293" value="" style="strokeColor=#DEEDFF" vertex="1" parent="1">
          <mxGeometry x="166.50000000000102" y="720.0000000000022" width="40" height="20" as="geometry" />
        </mxCell>
        <mxCell id="ye3r3yw3m_dPBivQgIVM-294" value="" style="strokeColor=#DEEDFF" vertex="1" parent="1">
          <mxGeometry x="166.50000000000136" y="820.000000000003" width="40" height="20" as="geometry" />
        </mxCell>
      </root>
    </mxGraphModel>
  </diagram>
</mxfile>
